<?xml version="1.0" encoding="UTF-8"?>
<svg id="Layer_2" data-name="Layer 2" xmlns="http://www.w3.org/2000/svg" viewBox="0 0 291.69 118.35">
  <defs>
    <style>
      .cls-1 {
        fill: #212ac6;
      }

      .cls-2 {
        fill: #2630e2;
      }

      .cls-3 {
        fill: none;
      }

      .cls-4 {
        fill: #0c1e4c;
      }

      .cls-5 {
        fill: #020716;
      }
    </style>
  </defs>
  <g id="Layer_1-2" data-name="Layer 1">
    <g>
      <polygon class="cls-2" points="91.93 37.24 78.53 42.83 65.23 10.54 91.93 37.24"/>
      <polygon class="cls-4" points="78.53 42.83 64.95 48.48 26.89 10.42 26.95 10.37 65.05 10.37 65.23 10.54 78.53 42.83"/>
      <polygon class="cls-1" points="91.95 75.48 65.13 102.3 46 56.37 64.95 48.48 91.95 75.48"/>
      <polygon class="cls-4" points="46 56.37 27.05 64.26 .05 37.27 26.87 10.44 46 56.37"/>
      <polygon class="cls-1" points="65.11 102.32 65.05 102.37 26.95 102.37 26.77 102.2 13.47 69.92 27.05 64.26 65.11 102.32"/>
      <polygon class="cls-5" points="26.77 102.2 .07 75.5 13.47 69.92 26.77 102.2"/>
      <polygon class="cls-4" points="13.47 69.92 .07 75.5 0 75.43 0 37.32 .03 37.29 13.47 69.92"/>
      <line class="cls-3" x1="26.87" y1="10.44" x2="26.84" y2="10.37"/>
      <line class="cls-3" x1="65.23" y1="10.54" x2="65.16" y2="10.37"/>
      <line class="cls-3" x1=".03" y1="37.29" y2="37.21"/>
      <polygon class="cls-1" points="92 37.32 92 75.43 91.97 75.45 78.53 42.83 91.93 37.24 92 37.32"/>
      <line class="cls-3" x1=".07" y1="75.5" y2="75.53"/>
      <polygon class="cls-5" points="65.13 102.3 65.11 102.32 27.05 64.26 46 56.37 65.13 102.3"/>
      <polygon class="cls-2" points="27.05 64.26 13.47 69.92 .03 37.29 .05 37.27 27.05 64.26"/>
      <line class="cls-3" x1=".05" y1="37.27" y2="37.21"/>
      <polygon class="cls-5" points="91.97 75.45 91.95 75.48 64.95 48.48 78.53 42.83 91.97 75.45"/>
      <polygon class="cls-2" points="64.95 48.48 46 56.37 15.5 0 26.89 10.42 64.95 48.48"/>
      <line class="cls-3" x1="26.89" y1="10.42" x2="26.84" y2="10.37"/>
    </g>
    <g>
      <path class="cls-5" d="M147.81,104.47l-44.63-43.28,2.79,1.12,.16,40.08h-9.42V42.27h.48l43.84,43.28-2.08-.64-.16-40.64h9.26v60.2h-.24Z"/>
      <path class="cls-5" d="M210.4,97.04c-.85,.69-1.98,1.4-3.39,2.12-1.41,.72-3.04,1.36-4.87,1.92s-3.71,1.03-5.63,1.4c-1.92,.37-3.7,.56-5.35,.56-4.74,0-8.98-.72-12.74-2.16-3.75-1.44-6.96-3.42-9.62-5.95-2.66-2.53-4.71-5.51-6.15-8.94-1.44-3.43-2.16-7.23-2.16-11.38,0-5,.81-9.43,2.44-13.29,1.62-3.86,3.81-7.11,6.55-9.74,2.74-2.64,5.91-4.62,9.5-5.95,3.59-1.33,7.39-2,11.38-2,3.51,0,6.77,.4,9.78,1.2,3.01,.8,5.6,1.81,7.79,3.03l-3.11,8.62c-1.01-.64-2.3-1.21-3.87-1.72-1.57-.51-3.18-.93-4.83-1.28-1.65-.35-3.17-.52-4.55-.52-3.3,0-6.28,.47-8.94,1.4-2.66,.93-4.92,2.3-6.79,4.11-1.86,1.81-3.29,4.01-4.27,6.59-.99,2.58-1.48,5.5-1.48,8.74,0,3.03,.53,5.78,1.6,8.22,1.06,2.45,2.52,4.55,4.35,6.31,1.84,1.76,4.06,3.1,6.67,4.03,2.61,.93,5.48,1.4,8.62,1.4,1.81,0,3.57-.16,5.27-.48,1.7-.32,3.17-.82,4.39-1.52v-9.66h-10.94v-9.02h20.36v23.95Z"/>
      <path class="cls-5" d="M216.71,44.58h10.78l14.45,41.2-1.6-.64,11.18-28.58,4.31,12.62-15.89,35.85-23.24-60.44Zm28.35,0h9.26l15.97,40.32-1.84-.32,13.25-40h9.98l-22.76,60.36-23.88-60.36Z"/>
    </g>
  </g>
</svg>